<svg xmlns="http://www.w3.org/2000/svg" xmlns:xlink="http://www.w3.org/1999/xlink" width="32px" height="14px" version="1.1" viewBox="0 0 48 48">
    <g>
        <g>
            <path style="fill:#ffffff;" d="M45.5,47.5H2.5c-1.1,0-2-0.9-2-2V11.2c0-1.1,0.9-2,2-2h43.1c1.1,0,2,0.9,2,2v34.4C47.5,46.6,46.6,47.5,45.5,47.5z     M4.4,43.6h39.2V13.1H4.4V43.6z"/>
        </g>
        <g>
            <path style="fill:#ffffff;" d="M33.6,13.1H14.4c-1.1,0-2-0.9-2-2V6.6c0-3.4,2.7-6.1,6.1-6.1h11c3.4,0,6.1,2.7,6.1,6.1v4.5C35.6,12.2,34.7,13.1,33.6,13.1    z M16.3,9.2h15.3V6.6c0-1.2-1-2.2-2.2-2.2h-11c-1.2,0-2.2,1-2.2,2.2V9.2z"/>
        </g>
    </g>
</svg>